<?xml version="1.0" encoding="utf-8"?>
<!-- Generator: Adobe Illustrator 21.0.2, SVG Export Plug-In . SVG Version: 6.00 Build 0)  -->
<svg version="1.1" id="Ebene_1" xmlns="http://www.w3.org/2000/svg" xmlns:xlink="http://www.w3.org/1999/xlink" x="0px" y="0px"
	 viewBox="0 0 141.7 141.7" style="enable-background:new 0 0 141.7 141.7;" xml:space="preserve">
<style type="text/css">
	.st0{fill:#EEEEEE;}
	.st1{fill:#FF7C00;}
	.st2{fill:#261300;}
</style>
<circle class="st0" cx="70.9" cy="70.9" r="42.5"/>
<path class="st1" d="M113.4,71.1c0,23.5-19,42.5-42.5,42.5s-42.5-19-42.5-42.5h42.5V28.5C94.3,28.5,113.4,47.6,113.4,71.1z"/>
<circle class="st2" cx="70.9" cy="70.9" r="35.4"/>
<g>
	<path class="st1" d="M72.6,80.9l-1.4-4.8h-7.3l-1.4,4.8h-4.6L65,60.8h5.2l7.1,20.1H72.6z M70.1,72.6c-1.3-4.3-2.1-6.7-2.3-7.3
		c-0.2-0.6-0.3-1-0.4-1.3c-0.3,1.2-1.2,4.1-2.6,8.7L70.1,72.6L70.1,72.6z"/>
	<path class="st1" d="M79.7,80.9v-20h4.2v20H79.7z"/>
</g>
<g id="cOX1Lg_1_">
	
		<image style="overflow:visible;" width="227" height="222" id="cOX1Lg" xlink:href="B63CDFC0F5CB6817.jpg"  transform="matrix(1 0 0 1 -291 -80.3)">
	</image>
</g>
<rect x="-40.5" y="21" class="st1" width="0" height="0.5"/>
</svg>
