<?xml version="1.0" encoding="utf-8"?>
<!-- Generator: Adobe Illustrator 21.0.2, SVG Export Plug-In . SVG Version: 6.00 Build 0)  -->
<svg version="1.1" id="Ebene_1" xmlns="http://www.w3.org/2000/svg" xmlns:xlink="http://www.w3.org/1999/xlink" x="0px" y="0px"
	 viewBox="0 0 512 512" style="enable-background:new 0 0 512 512;" xml:space="preserve">
<style type="text/css">
	.st0{fill:#FFFFFF;}
</style>
<path id="behance-icon" class="st0" d="M240.2,152c7.8,10.9,11.8,23.9,11.8,39c0,15.6-4,28.2-11.9,37.7
	c-4.4,5.3-10.9,10.2-19.5,14.6c13.1,4.7,22.9,12.3,29.6,22.6c6.6,10.3,10,22.8,10,37.5c0,15.2-3.8,28.8-11.4,40.8
	c-4.8,8-10.9,14.7-18.1,20.1c-8.2,6.2-17.8,10.5-28.9,12.8c-11.1,2.3-23.2,3.5-36.2,3.5H50.2V124.7h123.7
	C205.1,125.2,227.2,134.3,240.2,152z M101.3,169.2v56.4h62.2c11.1,0,20.1-2.1,27.1-6.3c6.9-4.2,10.4-11.7,10.4-22.5
	c0-11.9-4.6-19.8-13.7-23.6c-7.9-2.7-18-4-30.2-4L101.3,169.2L101.3,169.2z M101.3,267.9v68.2h62.1c11.1,0,19.7-1.5,25.9-4.5
	c11.2-5.6,16.8-16.2,16.8-31.9c0-13.3-5.4-22.5-16.3-27.4c-6.1-2.8-14.6-4.2-25.6-4.3L101.3,267.9L101.3,267.9z M412.8,195.2
	c13.2,5.9,24.1,15.2,32.7,28c7.7,11.2,12.8,24.3,15.1,39.1c1.3,8.7,1.9,21.2,1.6,37.6H324.4c0.8,19,7.4,32.3,19.8,39.9
	c7.6,4.7,16.6,7.1,27.3,7.1c11.3,0,20.4-2.9,27.5-8.7c3.8-3.1,7.2-7.5,10.2-13h50.5c-1.3,11.2-7.4,22.6-18.3,34.2
	c-17,18.4-40.7,27.6-71.2,27.6c-25.2,0-47.4-7.8-66.6-23.3c-19.3-15.5-28.9-40.8-28.9-75.8c0-32.8,8.7-57.9,26.1-75.4
	c17.2-17.4,39.8-26.2,67.5-26.2C384.8,186.3,399.6,189.3,412.8,195.2z M338.8,238c-7,7.2-11.4,17-13.2,29.3h85.2
	c-0.9-13.1-5.3-23.1-13.2-29.9s-17.7-10.2-29.3-10.2C355.6,227.1,345.8,230.7,338.8,238z M420.7,139.4H309.5v25.9h111.2V139.4z"/>
</svg>
